<?xml version="1.0" encoding="UTF-8"?>
<svg id="Capa_1" data-name="Capa 1" xmlns="http://www.w3.org/2000/svg" viewBox="0 0 536.8 210.74">
  <defs>
    <style>
      .cls-1 {
        fill: #c9a124;
      }

      .cls-2 {
        fill: #c9a227;
      }
    </style>
  </defs>
  <g>
    <g>
      <path class="cls-1" d="M485.5,51.25c32.71,3.03,50.95,31.74,42,63-4.44,15.52-17.62,25.83-32.5,30.49l41.51,62.52c.98.53-.9,1.98-1.01,1.98h-39l-41-63h-19.5v63h-32.5c-.11,0-1.5-1.39-1.5-1.5V52.75c0-.11,1.39-1.5,1.5-1.5h82ZM436,116.25h47.5c.36,0,5.42-3.4,6.01-3.99,6.1-6.2,6.18-19.18.94-25.95-1.04-1.34-5.77-5.06-6.94-5.06h-47.5v35Z"/>
      <g>
        <path class="cls-1" d="M40.5,51.25l63.5,113V52.75c0-.11,1.39-1.5,1.5-1.5h30c.11,0,1.5,1.39,1.5,1.5v155.5h-41.5l-62.5-110v110H0V52.75c0-.11,1.39-1.5,1.5-1.5h39Z"/>
        <path class="cls-1" d="M225.79,50.54c29.4-2.85,62.68,7.07,72.67,37.75,5.08,15.61,5.14,58.64,2.29,75.21-10.32,60.06-110.13,63.54-127.01,6.51-4.65-15.72-4.48-65.46.32-81.2,6.82-22.35,29.18-36.08,51.73-38.27ZM231.78,80.53c-10.81,1.23-22.17,8.28-24.32,19.67-1.91,10.08-1.63,46.69-.46,57.55,3.2,29.6,56.21,31.01,59.04-1.97,1.12-12.99,1.25-39.17-.05-52.02-1.76-17.43-18.31-25.04-34.21-23.23Z"/>
      </g>
    </g>
    <rect class="cls-1" x="332.45" y="51.41" width="36" height="158"/>
  </g>
  <path class="cls-2" d="M348.93,20.76c-1.81,0-3.13,1.27-4.01,2.12-1.52,1.47-1.61,2.42-3.07,4.65-2.66,4.06-4.02,3.37-4.95,6-.95,2.67-.68,6.59,1.19,8.42,1.39,1.35,3.23,1.14,4.29,1.02,3.17-.37,3.48-2.5,6-2.6,2.31-.09,2.58,1.68,6.12,2.37,1.82.35,3.49.68,4.85-.45,2.05-1.69,2.57-6,1.54-8.95-.83-2.38-1.95-1.79-4.82-6.01-1.42-2.1-1.64-2.97-3.05-4.33-1.02-.98-2.32-2.22-4.11-2.23Z"/>
  <path class="cls-2" d="M335.71,17.61c-1.02-.03-1.74.94-1.91,1.17-.97,1.3-.9,3.03-.86,4.34.06,1.54.12,3.31,1.26,4.63.19.22,1.5,1.7,3.11,1.24,1.02-.29,1.6-1.21,1.77-1.49.92-1.51.67-3.33.55-4.23-.32-2.34-1.5-3.72-1.98-4.29-.62-.73-1.15-1.34-1.94-1.36Z"/>
  <path class="cls-2" d="M337.76,9.85c-.12-.11-1.77,1.38-2.3,3.75-.26,1.16-.4,3.24.31,3.65.68.39,2.15-.78,2.35-2.11.16-1.11-.54-2.47-.56-3.65-.01-.61.08-1.09.08-1.09.08-.39.15-.52.12-.55Z"/>
  <path class="cls-2" d="M362.29,17.46c1.02-.03,1.74.94,1.91,1.17.97,1.3.9,3.03.86,4.34-.06,1.54-.12,3.31-1.26,4.63-.19.22-1.5,1.7-3.11,1.24-1.02-.29-1.6-1.21-1.77-1.49-.92-1.51-.67-3.33-.55-4.23.32-2.34,1.5-3.72,1.98-4.29.62-.73,1.15-1.34,1.94-1.36Z"/>
  <path class="cls-2" d="M360.49,9.85c.12-.11,1.77,1.38,2.3,3.75.26,1.16.4,3.24-.31,3.65-.68.39-2.15-.78-2.35-2.11-.16-1.11.54-2.47.56-3.65.01-.61-.08-1.09-.08-1.09-.08-.39-.15-.52-.12-.55Z"/>
  <path class="cls-2" d="M344.96,8.61c-1-.6-2.51.2-3.27,1.35-.52.78-.61,1.75-.8,3.68-.15,1.54-.23,2.31-.03,3.1.34,1.33,1.39,3.19,2.92,3.22,1.69.03,2.7-2.21,2.88-2.61.53-1.18.56-2.34.52-2.96-.04-.78-.32-1.53-.86-3.01-.62-1.69-.95-2.53-1.36-2.78Z"/>
  <path class="cls-2" d="M352.68,8.52c1-.6,2.51.2,3.27,1.35.52.78.61,1.75.8,3.68.15,1.54.23,2.31.03,3.1-.34,1.33-1.39,3.19-2.92,3.22-1.69.03-2.7-2.21-2.88-2.61-.53-1.18-.56-2.34-.52-2.96.04-.78.32-1.53.86-3.01.62-1.69.95-2.53,1.36-2.78Z"/>
  <path class="cls-2" d="M345.33.01c-.23-.18-1.69,1.46-2.3,3.75-.27,1.02-.65,2.47,0,3.29.6.75,1.89.74,2.41.01.31-.43.28-1,.23-1.76-.1-1.8-.73-2.23-.66-3.66.05-1.04.42-1.54.3-1.63Z"/>
  <path class="cls-2" d="M352.62.36c.23-.18,1.69,1.46,2.3,3.75.27,1.02.65,2.47,0,3.29-.6.75-1.89.74-2.41.01-.31-.43-.28-1-.23-1.76.1-1.8.73-2.23.66-3.66-.05-1.04-.42-1.54-.3-1.63Z"/>
</svg>