<?xml version="1.0" encoding="UTF-8"?>
<svg id="Capa_1" data-name="Capa 1" xmlns="http://www.w3.org/2000/svg" viewBox="0 0 79.85 102.05">
  <defs>
    <style>
      .cls-1 {
        fill: #c9a227;
      }
    </style>
  </defs>
  <g id="Capa_2" data-name="Capa 2">
    <path class="cls-1" d="M39.76,49.21c-4.51,0-7.78,3.01-9.96,5.02-3.78,3.48-3.99,5.75-7.61,11.01-6.61,9.62-9.98,7.99-12.3,14.22-2.36,6.34-1.7,15.62,2.96,19.95,3.45,3.2,8.03,2.7,10.65,2.41,7.88-.87,8.64-5.92,14.9-6.15,5.74-.21,6.42,3.99,15.2,5.61,4.51.83,8.67,1.6,12.05-1.06,5.1-4.02,6.39-14.23,3.83-21.21-2.07-5.65-4.85-4.24-11.96-14.26-3.54-4.99-4.06-7.04-7.57-10.26-2.52-2.31-5.75-5.27-10.21-5.28Z"/>
    <path class="cls-1" d="M6.93,41.74c-2.52-.07-4.32,2.22-4.74,2.77C-.22,47.58-.06,51.7.06,54.8c.14,3.64.31,7.84,3.12,10.97.46.51,3.73,4.04,7.73,2.93,2.53-.7,3.97-2.87,4.38-3.52,2.29-3.59,1.67-7.89,1.37-10.03-.8-5.54-3.71-8.83-4.92-10.18-1.53-1.72-2.86-3.18-4.82-3.23Z"/>
    <path class="cls-1" d="M12,23.35c-.3-.26-4.4,3.28-5.7,8.88-.64,2.75-.99,7.69.77,8.65,1.69.92,5.34-1.84,5.83-4.99.41-2.62-1.33-5.85-1.4-8.66-.03-1.45.2-2.58.2-2.58.19-.92.38-1.23.31-1.29Z"/>
    <path class="cls-1" d="M72.92,41.38c2.52-.07,4.32,2.22,4.74,2.77,2.41,3.08,2.25,7.19,2.13,10.29-.14,3.64-.31,7.84-3.12,10.97-.46.51-3.73,4.04-7.73,2.93-2.53-.7-3.97-2.87-4.38-3.52-2.29-3.59-1.67-7.89-1.37-10.03.8-5.54,3.71-8.83,4.92-10.18,1.53-1.72,2.86-3.18,4.82-3.23Z"/>
    <path class="cls-1" d="M68.45,23.35c.3-.26,4.4,3.28,5.7,8.88.64,2.75.99,7.69-.77,8.65-1.69.92-5.34-1.84-5.83-4.99-.41-2.62,1.33-5.85,1.4-8.66.03-1.45-.2-2.58-.2-2.58-.19-.92-.38-1.23-.31-1.29Z"/>
    <path class="cls-1" d="M29.9,20.41c-2.47-1.42-6.22.47-8.13,3.21-1.29,1.86-1.52,4.15-1.99,8.73-.37,3.65-.56,5.47-.07,7.34.83,3.16,3.46,7.56,7.26,7.63,4.21.07,6.71-5.23,7.15-6.18,1.31-2.79,1.38-5.54,1.3-7.01-.11-1.84-.79-3.63-2.15-7.13-1.55-4-2.35-6.01-3.37-6.59Z"/>
    <path class="cls-1" d="M49.07,20.2c2.47-1.42,6.22.47,8.13,3.21,1.29,1.86,1.52,4.15,1.99,8.73.37,3.65.56,5.47.07,7.34-.83,3.16-3.46,7.56-7.26,7.63-4.21.07-6.71-5.23-7.15-6.18-1.31-2.79-1.38-5.54-1.3-7.01.11-1.84.79-3.63,2.15-7.13,1.55-4,2.35-6.01,3.37-6.59Z"/>
    <path class="cls-1" d="M30.81.03c-.57-.43-4.21,3.45-5.7,8.88-.66,2.41-1.61,5.86.02,7.8,1.49,1.77,4.68,1.76,5.99.03.77-1.02.69-2.38.58-4.18-.25-4.26-1.82-5.28-1.64-8.67.13-2.46,1.05-3.64.75-3.87Z"/>
    <path class="cls-1" d="M48.92.85c.57-.43,4.21,3.45,5.7,8.88.66,2.41,1.61,5.86-.02,7.8-1.49,1.77-4.68,1.76-5.99.03-.77-1.02-.69-2.38-.58-4.18.25-4.26,1.82-5.28,1.64-8.67-.13-2.46-1.05-3.64-.75-3.87Z"/>
  </g>
</svg>